<svg width="65" height="65" viewBox="0 0 65 65" fill="none" xmlns="http://www.w3.org/2000/svg">
<circle cx="32.5" cy="32.5" r="32.5" fill="#FFE8A8"/>
<line x1="16.5" y1="25" x2="16.5" y2="16" stroke="#565151"/>
<line x1="16" y1="16.5" x2="25" y2="16.5" stroke="#565151"/>
<line x1="41" y1="16.5" x2="50" y2="16.5" stroke="#565151"/>
<line x1="49.5" y1="25" x2="49.5" y2="16" stroke="#565151"/>
<line x1="16.5" y1="40" x2="16.5" y2="49" stroke="#565151"/>
<line x1="25" y1="48.5" x2="16" y2="48.5" stroke="#565151"/>
<line x1="41" y1="48.5" x2="50" y2="48.5" stroke="#565151"/>
<line x1="49.5" y1="40" x2="49.5" y2="49" stroke="#565151"/>
<line x1="20.5" y1="36" x2="20.5" y2="45" stroke="#565151"/>
<line x1="20" y1="44.5" x2="29" y2="44.5" stroke="#565151"/>
<line x1="28.5" y1="45" x2="28.5" y2="37" stroke="#565151"/>
<line x1="29" y1="36.5" x2="21" y2="36.5" stroke="#565151"/>
<line x1="30" y1="44.5" x2="33" y2="44.5" stroke="#565151"/>
<line x1="34" y1="44.5" x2="36" y2="44.5" stroke="#565151"/>
<line x1="33" y1="43.5" x2="34" y2="43.5" stroke="#565151"/>
<line x1="36" y1="43.5" x2="39" y2="43.5" stroke="#565151"/>
<line x1="38.5" y1="45" x2="38.5" y2="42" stroke="#565151"/>
<line x1="35.5" y1="42" x2="35.5" y2="43" stroke="#565151"/>
<line x1="40" y1="44.5" x2="42" y2="44.5" stroke="#565151"/>
<line x1="41.5" y1="43" x2="41.5" y2="45" stroke="#565151"/>
<line x1="40" y1="42.5" x2="41" y2="42.5" stroke="#565151"/>
<line x1="43" y1="44.5" x2="46" y2="44.5" stroke="#565151"/>
<line x1="45.5" y1="45" x2="45.5" y2="43" stroke="#565151"/>
<line x1="42" y1="42.5" x2="45" y2="42.5" stroke="#565151"/>
<line x1="45" y1="41.5" x2="46" y2="41.5" stroke="#565151"/>
<line x1="41" y1="41.5" x2="42" y2="41.5" stroke="#565151"/>
<line x1="42" y1="40.5" x2="45" y2="40.5" stroke="#565151"/>
<line x1="44" y1="39.5" x2="45" y2="39.5" stroke="#565151"/>
<line x1="44" y1="39.5" x2="46" y2="39.5" stroke="#565151"/>
<line x1="39.5" y1="42" x2="39.5" y2="38" stroke="#565151"/>
<line x1="37" y1="38.5" x2="39" y2="38.5" stroke="#565151"/>
<line x1="38" y1="39.5" x2="35" y2="39.5" stroke="#565151"/>
<line x1="30.5" y1="43" x2="30.5" y2="40" stroke="#565151"/>
<line x1="30" y1="40.5" x2="34" y2="40.5" stroke="#565151"/>
<line x1="33.5" y1="41" x2="33.5" y2="39" stroke="#565151"/>
<line x1="34" y1="38.5" x2="35" y2="38.5" stroke="#565151"/>
<line x1="33" y1="38.5" x2="30" y2="38.5" stroke="#565151"/>
<line x1="30.5" y1="36" x2="30.5" y2="39" stroke="#565151"/>
<line x1="40" y1="37.5" x2="42" y2="37.5" stroke="#565151"/>
<line x1="41.5" y1="40" x2="41.5" y2="38" stroke="#565151"/>
<line x1="42" y1="36.5" x2="43" y2="36.5" stroke="#565151"/>
<line x1="43" y1="35.5" x2="46" y2="35.5" stroke="#565151"/>
<line x1="45.5" y1="37" x2="45.5" y2="35" stroke="#565151"/>
<line x1="43.5" y1="36" x2="43.5" y2="33" stroke="#565151"/>
<line x1="44" y1="32.5" x2="46" y2="32.5" stroke="#565151"/>
<line x1="45.5" y1="33" x2="45.5" y2="30" stroke="#565151"/>
<line x1="45" y1="29.5" x2="42" y2="29.5" stroke="#565151"/>
<line x1="46" y1="27.5" x2="37" y2="27.5" stroke="#565151"/>
<line x1="45.5" y1="19" x2="45.5" y2="28" stroke="#565151"/>
<line x1="37.5" y1="19" x2="37.5" y2="28" stroke="#565151"/>
<line x1="46" y1="19.5" x2="37" y2="19.5" stroke="#565151"/>
<line x1="41.5" y1="34" x2="41.5" y2="32" stroke="#565151"/>
<line x1="43" y1="32.5" x2="41" y2="32.5" stroke="#565151"/>
<line x1="40.5" y1="32" x2="40.5" y2="29" stroke="#565151"/>
<line x1="41" y1="34.5" x2="40" y2="34.5" stroke="#565151"/>
<line x1="39.5" y1="34" x2="39.5" y2="32" stroke="#565151"/>
<line x1="37" y1="32.5" x2="40" y2="32.5" stroke="#565151"/>
<line x1="37" y1="31.5" x2="36" y2="31.5" stroke="#565151"/>
<line x1="37.5" y1="31" x2="37.5" y2="30" stroke="#565151"/>
<line x1="35.5" y1="31" x2="35.5" y2="27" stroke="#565151"/>
<line x1="36" y1="32.5" x2="34" y2="32.5" stroke="#565151"/>
<line x1="34.5" y1="34" x2="34.5" y2="32" stroke="#565151"/>
<line x1="35.5" y1="34" x2="35.5" y2="38" stroke="#565151"/>
<line x1="37" y1="37.5" x2="35" y2="37.5" stroke="#565151"/>
<line x1="37.5" y1="37" x2="37.5" y2="34" stroke="#565151"/>
<line x1="31" y1="35.5" x2="34" y2="35.5" stroke="#565151"/>
<line x1="31" y1="34.5" x2="29" y2="34.5" stroke="#565151"/>
<line x1="31.5" y1="34" x2="31.5" y2="32" stroke="#565151"/>
<line x1="32.5" y1="32" x2="32.5" y2="29" stroke="#565151"/>
<line x1="31.5" y1="29" x2="31.5" y2="26" stroke="#565151"/>
<line x1="30" y1="27.5" x2="33" y2="27.5" stroke="#565151"/>
<line x1="32" y1="25.5" x2="33" y2="25.5" stroke="#565151"/>
<line x1="33.5" y1="25" x2="33.5" y2="22" stroke="#565151"/>
<line x1="33" y1="22.5" x2="36" y2="22.5" stroke="#565151"/>
<line x1="34" y1="25.5" x2="36" y2="25.5" stroke="#565151"/>
<line x1="30.5" y1="26" x2="30.5" y2="23" stroke="#565151"/>
<line x1="31" y1="22.5" x2="32" y2="22.5" stroke="#565151"/>
<line x1="30.5" y1="22" x2="30.5" y2="19" stroke="#565151"/>
<line x1="30" y1="19.5" x2="33" y2="19.5" stroke="#565151"/>
<line x1="34" y1="19.5" x2="36" y2="19.5" stroke="#565151"/>
<line x1="20.5" y1="19" x2="20.5" y2="28" stroke="#565151"/>
<line x1="20" y1="27.5" x2="29" y2="27.5" stroke="#565151"/>
<line x1="28.5" y1="28" x2="28.5" y2="19" stroke="#565151"/>
<line x1="29" y1="19.5" x2="20" y2="19.5" stroke="#565151"/>
<line x1="20" y1="29.5" x2="23" y2="29.5" stroke="#565151"/>
<line x1="23" y1="30.5" x2="25" y2="30.5" stroke="#565151"/>
<line x1="24.5" y1="33" x2="24.5" y2="30" stroke="#565151"/>
<line x1="25" y1="29.5" x2="26" y2="29.5" stroke="#565151"/>
<line x1="27" y1="29.5" x2="30" y2="29.5" stroke="#565151"/>
<line x1="26.5" y1="30" x2="26.5" y2="33" stroke="#565151"/>
<line x1="26" y1="32.5" x2="29" y2="32.5" stroke="#565151"/>
<line x1="30.5" y1="30" x2="30.5" y2="31" stroke="#565151"/>
<line x1="29.5" y1="33" x2="29.5" y2="35" stroke="#565151"/>
<line x1="26" y1="34.5" x2="27" y2="34.5" stroke="#565151"/>
<line x1="25.5" y1="33" x2="25.5" y2="34" stroke="#565151"/>
<line x1="23" y1="34.5" x2="25" y2="34.5" stroke="#565151"/>
<line x1="23" y1="33.5" x2="20" y2="33.5" stroke="#565151"/>
<line x1="20.5" y1="32" x2="20.5" y2="35" stroke="#565151"/>
<rect x="22" y="38" width="5" height="5" fill="#565151"/>
<rect x="22" y="21" width="5" height="5" fill="#565151"/>
<rect x="39" y="21" width="5" height="5" fill="#565151"/>
</svg>
