<svg width="18" height="20" viewBox="0 0 18 20" fill="none" xmlns="http://www.w3.org/2000/svg">
<path d="M15.6667 0H2.33335V1.66667H15.6667V0ZM2.33335 20H15.6667V18.3333H2.33335V20ZM15.6667 3.33333H2.33335C1.41669 3.33333 0.666687 4.08333 0.666687 5V15C0.666687 15.9167 1.41669 16.6667 2.33335 16.6667H15.6667C16.5834 16.6667 17.3334 15.9167 17.3334 15V5C17.3334 4.08333 16.5834 3.33333 15.6667 3.33333ZM9.00002 5.625C10.0334 5.625 10.875 6.46667 10.875 7.5C10.875 8.53333 10.0334 9.375 9.00002 9.375C7.96669 9.375 7.12502 8.53333 7.12502 7.5C7.12502 6.46667 7.96669 5.625 9.00002 5.625ZM13.1667 14.1667H4.83335V12.9167C4.83335 11.525 7.60835 10.8333 9.00002 10.8333C10.3917 10.8333 13.1667 11.525 13.1667 12.9167V14.1667Z" fill="#D6F1FF"/>
</svg>
